<?xml version="1.0" standalone="no"?>
<!DOCTYPE svg PUBLIC "-//W3C//DTD SVG 20010904//EN"
 "http://www.w3.org/TR/2001/REC-SVG-20010904/DTD/svg10.dtd">
<svg version="1.0" xmlns="http://www.w3.org/2000/svg"
 width="512.000000pt" height="512.000000pt" viewBox="0 0 512.000000 512.000000"
 preserveAspectRatio="xMidYMid meet">

<g transform="translate(0.000000,512.000000) scale(0.100000,-0.100000)"
fill="#000000" stroke="none">
<path d="M2222 4858 c-404 -402 -453 -464 -514 -648 -29 -88 -31 -106 -32
-235 -1 -157 12 -218 69 -342 l34 -73 -471 -517 c-259 -285 -636 -695 -837
-911 -201 -216 -372 -405 -379 -418 -39 -74 52 -157 125 -116 17 9 190 166
385 347 194 182 601 556 905 833 l551 502 74 -34 c120 -56 187 -70 333 -70
105 0 145 4 209 22 91 26 200 78 266 127 25 19 188 177 363 353 265 265 318
323 315 343 -2 17 -10 25 -28 27 -21 2 -60 -33 -230 -203 l-205 -205 -47 47
-48 47 205 206 c113 113 205 213 205 221 0 21 -20 39 -44 39 -14 0 -92 -71
-223 -202 l-203 -203 -47 48 -48 47 208 208 c114 114 207 213 207 219 0 15
-28 43 -43 43 -7 0 -105 -93 -219 -207 l-208 -207 -45 44 c-25 24 -45 49 -45
55 0 5 90 100 200 210 110 110 200 207 200 215 0 20 -20 40 -40 40 -8 0 -107
-92 -220 -205 l-205 -205 -47 47 -48 47 205 206 c113 113 205 213 205 221 0
21 -20 39 -44 39 -13 0 -95 -75 -223 -202 l-203 -203 -47 48 -48 47 204 204
c167 167 202 207 199 227 -2 16 -11 25 -27 27 -20 3 -60 -32 -227 -199 l-204
-204 -47 48 -48 47 203 203 c127 128 202 210 202 223 0 24 -18 44 -39 44 -9 0
-108 -92 -221 -205 l-205 -205 -48 48 -47 47 200 200 c131 130 200 207 200
220 0 25 -18 45 -39 45 -8 0 -134 -118 -279 -262z m364 -765 c277 -274 504
-502 504 -507 0 -6 -19 -30 -42 -53 l-43 -43 -391 391 c-358 358 -394 391
-418 385 -20 -5 -26 -13 -26 -33 0 -23 69 -96 386 -414 l386 -387 -53 -40
c-145 -108 -340 -159 -508 -133 -94 14 -196 48 -265 86 -38 22 -54 26 -72 19
-24 -9 -938 -838 -1494 -1354 -173 -161 -327 -304 -342 -317 -14 -14 -32 -23
-38 -21 -7 2 122 148 286 323 405 435 1414 1543 1414 1554 0 5 -18 47 -40 93
-114 239 -104 474 29 703 29 49 203 245 218 245 3 0 232 -224 509 -497z"/>
<path d="M4254 4429 c-27 -8 -117 -125 -619 -817 -323 -444 -597 -817 -609
-829 -12 -12 -297 -173 -633 -358 l-613 -336 -42 34 c-198 160 -493 151 -679
-21 -114 -105 -169 -231 -169 -385 0 -292 222 -517 512 -518 309 -2 544 243
526 550 l-4 70 530 285 c291 158 531 284 533 282 2 -2 -124 -241 -281 -532
l-284 -529 -68 3 c-142 7 -285 -45 -390 -140 -172 -158 -214 -419 -101 -633
18 -33 60 -89 93 -125 34 -36 68 -79 77 -96 39 -75 30 -165 -24 -241 -32 -46
-36 -65 -14 -83 23 -19 47 -8 82 38 44 58 67 139 60 214 -3 32 -4 58 -4 58 1
0 24 -7 51 -15 64 -19 196 -19 271 1 178 46 328 198 370 375 37 161 -2 342
-101 458 l-33 38 347 632 347 632 813 586 c885 636 857 613 834 692 -13 43
-46 70 -97 78 -30 5 -94 -27 -575 -292 -298 -163 -543 -295 -545 -293 -2 2
128 245 290 541 312 568 316 576 278 634 -9 14 -32 32 -50 39 -36 16 -36 16
-79 3z m60 -109 c0 -14 -386 -726 -857 -1583 -471 -857 -857 -1563 -857 -1568
0 -6 19 -34 43 -62 85 -101 117 -185 117 -301 0 -173 -98 -324 -257 -399 -56
-25 -83 -32 -156 -35 -142 -7 -244 31 -337 128 -131 135 -164 325 -86 495 29
65 110 154 172 190 85 50 221 76 299 57 23 -5 50 -6 61 -2 13 5 123 200 327
579 169 315 307 577 307 582 0 6 -15 31 -32 57 -29 42 -33 55 -33 114 0 59 3
71 35 115 19 28 300 413 624 857 486 665 593 806 610 804 15 -2 21 -10 20 -28z
m636 -614 c7 -9 8 -21 3 -30 -9 -16 -1453 -1059 -1459 -1054 -2 2 50 103 116
223 l118 220 594 327 c326 180 598 328 604 328 6 0 17 -7 24 -14z m-1999
-1225 c3 -10 -166 -107 -542 -310 -300 -163 -551 -300 -557 -304 -9 -6 -10
-36 -6 -107 6 -87 4 -107 -16 -171 -71 -220 -302 -351 -519 -294 -87 22 -128
45 -194 105 -109 99 -158 234 -137 377 13 93 48 168 110 236 169 185 441 196
625 25 23 -21 49 -38 57 -38 7 0 272 142 588 315 l575 315 6 -67 c4 -38 9 -74
10 -82z"/>
<path d="M2250 1126 c-71 -16 -106 -35 -159 -86 -164 -160 -114 -436 98 -534
65 -30 197 -30 263 1 162 74 239 275 166 433 -64 141 -220 219 -368 186z m196
-108 c58 -37 91 -81 110 -145 20 -67 13 -118 -23 -184 -78 -145 -270 -171
-388 -52 -121 121 -82 327 75 398 55 25 174 16 226 -17z"/>
<path d="M1340 2036 c-71 -16 -112 -38 -162 -88 -64 -64 -93 -137 -93 -233 1
-103 27 -165 99 -233 189 -179 493 -83 546 172 47 229 -161 433 -390 382z
m176 -97 c85 -40 134 -120 134 -219 -1 -103 -45 -176 -133 -222 -206 -105
-434 123 -329 329 63 123 202 170 328 112z"/>
</g>
</svg>
