<?xml version="1.0" encoding="UTF-8"?>
<!DOCTYPE svg PUBLIC "-//W3C//DTD SVG 1.1//EN" "http://www.w3.org/Graphics/SVG/1.1/DTD/svg11.dtd">
<svg xmlns="http://www.w3.org/2000/svg" version="1.1" width="512px" height="512px" style="shape-rendering:geometricPrecision; text-rendering:geometricPrecision; image-rendering:optimizeQuality; fill-rule:evenodd; clip-rule:evenodd" xmlns:xlink="http://www.w3.org/1999/xlink">
<g><path style="opacity:0.998" fill="#1c8adb" d="M 232.5,-0.5 C 247.833,-0.5 263.167,-0.5 278.5,-0.5C 368.144,10.3879 435.644,54.7213 481,132.5C 497.695,163.971 507.861,197.304 511.5,232.5C 511.5,247.833 511.5,263.167 511.5,278.5C 500.612,368.144 456.279,435.644 378.5,481C 347.029,497.695 313.696,507.861 278.5,511.5C 263.167,511.5 247.833,511.5 232.5,511.5C 142.856,500.612 75.3562,456.279 30,378.5C 13.3053,347.029 3.1386,313.696 -0.5,278.5C -0.5,263.167 -0.5,247.833 -0.5,232.5C 10.3875,142.857 54.7208,75.3573 132.5,30C 163.971,13.3053 197.304,3.1386 232.5,-0.5 Z"/></g>
<g><path style="opacity:1" fill="#fefefe" d="M 394.5,131.5 C 408.841,129.374 415.674,135.374 415,149.5C 398.454,221.437 382.121,293.437 366,365.5C 364.094,374.738 358.427,379.738 349,380.5C 345.591,380.048 342.424,378.881 339.5,377C 315.007,359.919 290.34,343.086 265.5,326.5C 252.683,338.15 240.016,349.983 227.5,362C 219.568,367.324 212.402,366.491 206,359.5C 196.692,331.909 187.192,304.409 177.5,277C 152.688,269.501 127.688,262.501 102.5,256C 93.1667,249.667 93.1667,243.333 102.5,237C 200.122,202.296 297.456,167.129 394.5,131.5 Z"/></g>
<g><path style="opacity:1" fill="#218bdb" d="M 353.5,175.5 C 358.667,174.492 360.334,176.325 358.5,181C 312.043,218.455 265.876,256.289 220,294.5C 218.213,309.491 216.546,324.491 215,339.5C 213.989,340.337 212.822,340.67 211.5,340.5C 205.179,319.037 198.346,297.704 191,276.5C 190.245,273.697 190.578,271.03 192,268.5C 246.141,237.852 299.974,206.852 353.5,175.5 Z"/></g>
</svg>
